<mxfile host="app.diagrams.net" modified="2021-03-17T10:28:19.807Z" agent="5.0 (Windows NT 10.0; WOW64) AppleWebKit/537.36 (KHTML, like Gecko) Chrome/86.0.4240.75 Safari/537.36" etag="VMF6L012AWYB6hYDG33N" version="14.4.8" type="github">
  <diagram id="tyTrOc49m1w_2Mptfu5p" name="Page-1">
    <mxGraphModel dx="1564" dy="938" grid="1" gridSize="10" guides="1" tooltips="1" connect="1" arrows="1" fold="1" page="1" pageScale="1" pageWidth="2339" pageHeight="3300" math="0" shadow="0">
      <root>
        <mxCell id="0" />
        <mxCell id="1" parent="0" />
        <mxCell id="JpLIe5kng9SGEBmLXfT2-19" style="edgeStyle=orthogonalEdgeStyle;rounded=0;orthogonalLoop=1;jettySize=auto;html=1;exitX=1;exitY=0;exitDx=0;exitDy=0;entryX=0;entryY=0.5;entryDx=0;entryDy=0;" edge="1" parent="1" source="JpLIe5kng9SGEBmLXfT2-2" target="JpLIe5kng9SGEBmLXfT2-5">
          <mxGeometry relative="1" as="geometry" />
        </mxCell>
        <mxCell id="JpLIe5kng9SGEBmLXfT2-20" style="edgeStyle=orthogonalEdgeStyle;rounded=0;orthogonalLoop=1;jettySize=auto;html=1;exitX=1;exitY=0.25;exitDx=0;exitDy=0;entryX=0;entryY=0.25;entryDx=0;entryDy=0;" edge="1" parent="1" source="JpLIe5kng9SGEBmLXfT2-2" target="JpLIe5kng9SGEBmLXfT2-16">
          <mxGeometry relative="1" as="geometry" />
        </mxCell>
        <mxCell id="JpLIe5kng9SGEBmLXfT2-21" style="edgeStyle=orthogonalEdgeStyle;rounded=0;orthogonalLoop=1;jettySize=auto;html=1;exitX=1;exitY=0.5;exitDx=0;exitDy=0;entryX=0;entryY=0.5;entryDx=0;entryDy=0;" edge="1" parent="1" source="JpLIe5kng9SGEBmLXfT2-2" target="JpLIe5kng9SGEBmLXfT2-15">
          <mxGeometry relative="1" as="geometry" />
        </mxCell>
        <mxCell id="JpLIe5kng9SGEBmLXfT2-23" style="edgeStyle=orthogonalEdgeStyle;rounded=0;orthogonalLoop=1;jettySize=auto;html=1;exitX=1;exitY=0.75;exitDx=0;exitDy=0;entryX=0;entryY=0.25;entryDx=0;entryDy=0;" edge="1" parent="1" source="JpLIe5kng9SGEBmLXfT2-2" target="JpLIe5kng9SGEBmLXfT2-4">
          <mxGeometry relative="1" as="geometry">
            <Array as="points">
              <mxPoint x="580" y="608" />
            </Array>
          </mxGeometry>
        </mxCell>
        <mxCell id="JpLIe5kng9SGEBmLXfT2-2" value="编写软件" style="rounded=0;whiteSpace=wrap;html=1;" vertex="1" parent="1">
          <mxGeometry x="460" y="413.5" width="120" height="71" as="geometry" />
        </mxCell>
        <mxCell id="JpLIe5kng9SGEBmLXfT2-36" style="edgeStyle=orthogonalEdgeStyle;rounded=0;orthogonalLoop=1;jettySize=auto;html=1;exitX=1;exitY=0.5;exitDx=0;exitDy=0;" edge="1" parent="1" source="JpLIe5kng9SGEBmLXfT2-3" target="JpLIe5kng9SGEBmLXfT2-35">
          <mxGeometry relative="1" as="geometry" />
        </mxCell>
        <mxCell id="JpLIe5kng9SGEBmLXfT2-3" value="调试" style="rounded=0;whiteSpace=wrap;html=1;" vertex="1" parent="1">
          <mxGeometry x="1480" y="408" width="120" height="71" as="geometry" />
        </mxCell>
        <mxCell id="JpLIe5kng9SGEBmLXfT2-25" style="edgeStyle=orthogonalEdgeStyle;rounded=0;orthogonalLoop=1;jettySize=auto;html=1;exitX=1;exitY=0.5;exitDx=0;exitDy=0;entryX=0;entryY=1;entryDx=0;entryDy=0;" edge="1" parent="1" source="JpLIe5kng9SGEBmLXfT2-4" target="JpLIe5kng9SGEBmLXfT2-17">
          <mxGeometry relative="1" as="geometry" />
        </mxCell>
        <mxCell id="JpLIe5kng9SGEBmLXfT2-4" value="编写用户指南" style="rounded=0;whiteSpace=wrap;html=1;" vertex="1" parent="1">
          <mxGeometry x="760" y="590" width="116" height="71" as="geometry" />
        </mxCell>
        <mxCell id="JpLIe5kng9SGEBmLXfT2-24" style="edgeStyle=orthogonalEdgeStyle;rounded=0;orthogonalLoop=1;jettySize=auto;html=1;exitX=1;exitY=0.5;exitDx=0;exitDy=0;entryX=0;entryY=0;entryDx=0;entryDy=0;" edge="1" parent="1" source="JpLIe5kng9SGEBmLXfT2-5" target="JpLIe5kng9SGEBmLXfT2-17">
          <mxGeometry relative="1" as="geometry" />
        </mxCell>
        <mxCell id="JpLIe5kng9SGEBmLXfT2-5" value="选择用户问卷设计" style="rounded=0;whiteSpace=wrap;html=1;" vertex="1" parent="1">
          <mxGeometry x="760" y="240" width="116" height="71" as="geometry" />
        </mxCell>
        <mxCell id="JpLIe5kng9SGEBmLXfT2-30" style="edgeStyle=orthogonalEdgeStyle;rounded=0;orthogonalLoop=1;jettySize=auto;html=1;exitX=1;exitY=0.5;exitDx=0;exitDy=0;entryX=0;entryY=0.5;entryDx=0;entryDy=0;" edge="1" parent="1" source="JpLIe5kng9SGEBmLXfT2-6" target="JpLIe5kng9SGEBmLXfT2-3">
          <mxGeometry relative="1" as="geometry" />
        </mxCell>
        <mxCell id="JpLIe5kng9SGEBmLXfT2-6" value="起草反馈报告" style="rounded=0;whiteSpace=wrap;html=1;" vertex="1" parent="1">
          <mxGeometry x="1270" y="413.5" width="120" height="60" as="geometry" />
        </mxCell>
        <mxCell id="JpLIe5kng9SGEBmLXfT2-27" style="edgeStyle=orthogonalEdgeStyle;rounded=0;orthogonalLoop=1;jettySize=auto;html=1;exitX=1;exitY=0.5;exitDx=0;exitDy=0;entryX=0;entryY=0.75;entryDx=0;entryDy=0;" edge="1" parent="1" source="JpLIe5kng9SGEBmLXfT2-15" target="JpLIe5kng9SGEBmLXfT2-17">
          <mxGeometry relative="1" as="geometry" />
        </mxCell>
        <mxCell id="JpLIe5kng9SGEBmLXfT2-15" value="反馈信息问卷设计" style="rounded=0;whiteSpace=wrap;html=1;" vertex="1" parent="1">
          <mxGeometry x="760" y="479" width="116" height="60" as="geometry" />
        </mxCell>
        <mxCell id="JpLIe5kng9SGEBmLXfT2-26" style="edgeStyle=orthogonalEdgeStyle;rounded=0;orthogonalLoop=1;jettySize=auto;html=1;exitX=1;exitY=0.5;exitDx=0;exitDy=0;entryX=0;entryY=0.25;entryDx=0;entryDy=0;" edge="1" parent="1" source="JpLIe5kng9SGEBmLXfT2-16" target="JpLIe5kng9SGEBmLXfT2-17">
          <mxGeometry relative="1" as="geometry" />
        </mxCell>
        <mxCell id="JpLIe5kng9SGEBmLXfT2-16" value="用户测试任务设计" style="rounded=0;whiteSpace=wrap;html=1;" vertex="1" parent="1">
          <mxGeometry x="760" y="370" width="116" height="60" as="geometry" />
        </mxCell>
        <mxCell id="JpLIe5kng9SGEBmLXfT2-29" style="edgeStyle=orthogonalEdgeStyle;rounded=0;orthogonalLoop=1;jettySize=auto;html=1;exitX=1;exitY=0.5;exitDx=0;exitDy=0;entryX=0;entryY=0.5;entryDx=0;entryDy=0;" edge="1" parent="1" source="JpLIe5kng9SGEBmLXfT2-17" target="JpLIe5kng9SGEBmLXfT2-6">
          <mxGeometry relative="1" as="geometry" />
        </mxCell>
        <mxCell id="JpLIe5kng9SGEBmLXfT2-17" value="分析反馈问卷" style="rounded=0;whiteSpace=wrap;html=1;" vertex="1" parent="1">
          <mxGeometry x="1070" y="413.5" width="120" height="60" as="geometry" />
        </mxCell>
        <mxCell id="JpLIe5kng9SGEBmLXfT2-47" style="edgeStyle=orthogonalEdgeStyle;rounded=0;orthogonalLoop=1;jettySize=auto;html=1;exitX=0;exitY=1;exitDx=0;exitDy=0;entryX=0.5;entryY=0;entryDx=0;entryDy=0;" edge="1" parent="1" source="JpLIe5kng9SGEBmLXfT2-31" target="JpLIe5kng9SGEBmLXfT2-37">
          <mxGeometry relative="1" as="geometry">
            <Array as="points">
              <mxPoint x="940" y="830" />
              <mxPoint x="550" y="830" />
            </Array>
          </mxGeometry>
        </mxCell>
        <mxCell id="JpLIe5kng9SGEBmLXfT2-48" style="edgeStyle=orthogonalEdgeStyle;rounded=0;orthogonalLoop=1;jettySize=auto;html=1;exitX=0.25;exitY=1;exitDx=0;exitDy=0;" edge="1" parent="1" source="JpLIe5kng9SGEBmLXfT2-31">
          <mxGeometry relative="1" as="geometry">
            <mxPoint x="860" y="1000" as="targetPoint" />
          </mxGeometry>
        </mxCell>
        <mxCell id="JpLIe5kng9SGEBmLXfT2-49" style="edgeStyle=orthogonalEdgeStyle;rounded=0;orthogonalLoop=1;jettySize=auto;html=1;exitX=0.5;exitY=1;exitDx=0;exitDy=0;entryX=0.25;entryY=0;entryDx=0;entryDy=0;" edge="1" parent="1" source="JpLIe5kng9SGEBmLXfT2-31" target="JpLIe5kng9SGEBmLXfT2-44">
          <mxGeometry relative="1" as="geometry" />
        </mxCell>
        <mxCell id="JpLIe5kng9SGEBmLXfT2-50" style="edgeStyle=orthogonalEdgeStyle;rounded=0;orthogonalLoop=1;jettySize=auto;html=1;exitX=0.75;exitY=1;exitDx=0;exitDy=0;entryX=0.5;entryY=0;entryDx=0;entryDy=0;" edge="1" parent="1" source="JpLIe5kng9SGEBmLXfT2-31" target="JpLIe5kng9SGEBmLXfT2-45">
          <mxGeometry relative="1" as="geometry">
            <Array as="points">
              <mxPoint x="1030" y="880" />
              <mxPoint x="1410" y="880" />
            </Array>
          </mxGeometry>
        </mxCell>
        <mxCell id="JpLIe5kng9SGEBmLXfT2-51" style="edgeStyle=orthogonalEdgeStyle;rounded=0;orthogonalLoop=1;jettySize=auto;html=1;exitX=1;exitY=1;exitDx=0;exitDy=0;entryX=0.5;entryY=0;entryDx=0;entryDy=0;" edge="1" parent="1" source="JpLIe5kng9SGEBmLXfT2-31" target="JpLIe5kng9SGEBmLXfT2-46">
          <mxGeometry relative="1" as="geometry">
            <Array as="points">
              <mxPoint x="1060" y="830" />
              <mxPoint x="1630" y="830" />
            </Array>
          </mxGeometry>
        </mxCell>
        <mxCell id="JpLIe5kng9SGEBmLXfT2-31" value="可用性测试" style="rounded=0;whiteSpace=wrap;html=1;" vertex="1" parent="1">
          <mxGeometry x="940" y="760" width="120" height="60" as="geometry" />
        </mxCell>
        <mxCell id="JpLIe5kng9SGEBmLXfT2-33" style="edgeStyle=orthogonalEdgeStyle;rounded=0;orthogonalLoop=1;jettySize=auto;html=1;exitX=1;exitY=0.5;exitDx=0;exitDy=0;entryX=0;entryY=0.5;entryDx=0;entryDy=0;" edge="1" parent="1" source="JpLIe5kng9SGEBmLXfT2-32" target="JpLIe5kng9SGEBmLXfT2-2">
          <mxGeometry relative="1" as="geometry" />
        </mxCell>
        <mxCell id="JpLIe5kng9SGEBmLXfT2-32" value="" style="ellipse;whiteSpace=wrap;html=1;aspect=fixed;" vertex="1" parent="1">
          <mxGeometry x="200" y="429" width="40" height="40" as="geometry" />
        </mxCell>
        <mxCell id="JpLIe5kng9SGEBmLXfT2-35" value="" style="ellipse;whiteSpace=wrap;html=1;aspect=fixed;" vertex="1" parent="1">
          <mxGeometry x="1720" y="423.5" width="40" height="40" as="geometry" />
        </mxCell>
        <mxCell id="JpLIe5kng9SGEBmLXfT2-37" value="编写软件" style="rounded=0;whiteSpace=wrap;html=1;" vertex="1" parent="1">
          <mxGeometry x="490" y="1010" width="120" height="60" as="geometry" />
        </mxCell>
        <mxCell id="JpLIe5kng9SGEBmLXfT2-52" style="edgeStyle=orthogonalEdgeStyle;rounded=0;orthogonalLoop=1;jettySize=auto;html=1;exitX=0;exitY=1;exitDx=0;exitDy=0;entryX=0.5;entryY=0;entryDx=0;entryDy=0;" edge="1" parent="1" source="JpLIe5kng9SGEBmLXfT2-39" target="JpLIe5kng9SGEBmLXfT2-43">
          <mxGeometry relative="1" as="geometry">
            <Array as="points">
              <mxPoint x="810" y="1090" />
              <mxPoint x="618" y="1090" />
            </Array>
          </mxGeometry>
        </mxCell>
        <mxCell id="JpLIe5kng9SGEBmLXfT2-53" style="edgeStyle=orthogonalEdgeStyle;rounded=0;orthogonalLoop=1;jettySize=auto;html=1;exitX=0.25;exitY=1;exitDx=0;exitDy=0;entryX=0.5;entryY=0;entryDx=0;entryDy=0;" edge="1" parent="1" source="JpLIe5kng9SGEBmLXfT2-39" target="JpLIe5kng9SGEBmLXfT2-40">
          <mxGeometry relative="1" as="geometry" />
        </mxCell>
        <mxCell id="JpLIe5kng9SGEBmLXfT2-54" style="edgeStyle=orthogonalEdgeStyle;rounded=0;orthogonalLoop=1;jettySize=auto;html=1;exitX=0.5;exitY=1;exitDx=0;exitDy=0;entryX=0.5;entryY=0;entryDx=0;entryDy=0;" edge="1" parent="1" source="JpLIe5kng9SGEBmLXfT2-39" target="JpLIe5kng9SGEBmLXfT2-41">
          <mxGeometry relative="1" as="geometry" />
        </mxCell>
        <mxCell id="JpLIe5kng9SGEBmLXfT2-55" style="edgeStyle=orthogonalEdgeStyle;rounded=0;orthogonalLoop=1;jettySize=auto;html=1;exitX=0.75;exitY=1;exitDx=0;exitDy=0;entryX=0.5;entryY=0;entryDx=0;entryDy=0;" edge="1" parent="1" source="JpLIe5kng9SGEBmLXfT2-39" target="JpLIe5kng9SGEBmLXfT2-42">
          <mxGeometry relative="1" as="geometry">
            <Array as="points">
              <mxPoint x="930" y="1065" />
              <mxPoint x="930" y="1090" />
              <mxPoint x="1098" y="1090" />
            </Array>
          </mxGeometry>
        </mxCell>
        <mxCell id="JpLIe5kng9SGEBmLXfT2-39" value="测试准备" style="rounded=0;whiteSpace=wrap;html=1;" vertex="1" parent="1">
          <mxGeometry x="810" y="1004.5" width="120" height="60" as="geometry" />
        </mxCell>
        <mxCell id="JpLIe5kng9SGEBmLXfT2-40" value="选择用户问卷设计" style="rounded=0;whiteSpace=wrap;html=1;" vertex="1" parent="1">
          <mxGeometry x="720" y="1189" width="116" height="71" as="geometry" />
        </mxCell>
        <mxCell id="JpLIe5kng9SGEBmLXfT2-41" value="用户测试任务设计" style="rounded=0;whiteSpace=wrap;html=1;" vertex="1" parent="1">
          <mxGeometry x="870" y="1194.5" width="116" height="60" as="geometry" />
        </mxCell>
        <mxCell id="JpLIe5kng9SGEBmLXfT2-42" value="反馈信息问卷设计" style="rounded=0;whiteSpace=wrap;html=1;" vertex="1" parent="1">
          <mxGeometry x="1040" y="1194.5" width="116" height="60" as="geometry" />
        </mxCell>
        <mxCell id="JpLIe5kng9SGEBmLXfT2-43" value="编写用户指南" style="rounded=0;whiteSpace=wrap;html=1;" vertex="1" parent="1">
          <mxGeometry x="560" y="1189" width="116" height="71" as="geometry" />
        </mxCell>
        <mxCell id="JpLIe5kng9SGEBmLXfT2-44" value="分析反馈问卷" style="rounded=0;whiteSpace=wrap;html=1;" vertex="1" parent="1">
          <mxGeometry x="1090" y="1004.5" width="120" height="60" as="geometry" />
        </mxCell>
        <mxCell id="JpLIe5kng9SGEBmLXfT2-45" value="起草反馈报告" style="rounded=0;whiteSpace=wrap;html=1;" vertex="1" parent="1">
          <mxGeometry x="1350" y="1010" width="120" height="60" as="geometry" />
        </mxCell>
        <mxCell id="JpLIe5kng9SGEBmLXfT2-46" value="调试" style="rounded=0;whiteSpace=wrap;html=1;" vertex="1" parent="1">
          <mxGeometry x="1570" y="1004.5" width="120" height="71" as="geometry" />
        </mxCell>
        <mxCell id="JpLIe5kng9SGEBmLXfT2-65" style="edgeStyle=orthogonalEdgeStyle;rounded=0;orthogonalLoop=1;jettySize=auto;html=1;exitX=0.5;exitY=1;exitDx=0;exitDy=0;entryX=0.5;entryY=0;entryDx=0;entryDy=0;" edge="1" parent="1" source="JpLIe5kng9SGEBmLXfT2-56" target="JpLIe5kng9SGEBmLXfT2-57">
          <mxGeometry relative="1" as="geometry" />
        </mxCell>
        <mxCell id="JpLIe5kng9SGEBmLXfT2-56" value="编写软件" style="rounded=0;whiteSpace=wrap;html=1;" vertex="1" parent="1">
          <mxGeometry x="950" y="1310" width="120" height="60" as="geometry" />
        </mxCell>
        <mxCell id="JpLIe5kng9SGEBmLXfT2-66" style="edgeStyle=orthogonalEdgeStyle;rounded=0;orthogonalLoop=1;jettySize=auto;html=1;exitX=0.25;exitY=1;exitDx=0;exitDy=0;entryX=0.5;entryY=0;entryDx=0;entryDy=0;" edge="1" parent="1" source="JpLIe5kng9SGEBmLXfT2-57" target="JpLIe5kng9SGEBmLXfT2-58">
          <mxGeometry relative="1" as="geometry" />
        </mxCell>
        <mxCell id="JpLIe5kng9SGEBmLXfT2-67" style="edgeStyle=orthogonalEdgeStyle;rounded=0;orthogonalLoop=1;jettySize=auto;html=1;exitX=0.75;exitY=1;exitDx=0;exitDy=0;entryX=0.5;entryY=0;entryDx=0;entryDy=0;" edge="1" parent="1" source="JpLIe5kng9SGEBmLXfT2-57" target="JpLIe5kng9SGEBmLXfT2-59">
          <mxGeometry relative="1" as="geometry" />
        </mxCell>
        <mxCell id="JpLIe5kng9SGEBmLXfT2-57" value="编写用户指南" style="rounded=0;whiteSpace=wrap;html=1;" vertex="1" parent="1">
          <mxGeometry x="952" y="1440" width="116" height="71" as="geometry" />
        </mxCell>
        <mxCell id="JpLIe5kng9SGEBmLXfT2-68" style="edgeStyle=orthogonalEdgeStyle;rounded=0;orthogonalLoop=1;jettySize=auto;html=1;exitX=0.5;exitY=1;exitDx=0;exitDy=0;entryX=0.25;entryY=0;entryDx=0;entryDy=0;" edge="1" parent="1" source="JpLIe5kng9SGEBmLXfT2-58" target="JpLIe5kng9SGEBmLXfT2-61">
          <mxGeometry relative="1" as="geometry" />
        </mxCell>
        <mxCell id="JpLIe5kng9SGEBmLXfT2-58" value="选择用户问卷设计" style="rounded=0;whiteSpace=wrap;html=1;" vertex="1" parent="1">
          <mxGeometry x="812" y="1560" width="116" height="71" as="geometry" />
        </mxCell>
        <mxCell id="JpLIe5kng9SGEBmLXfT2-69" style="edgeStyle=orthogonalEdgeStyle;rounded=0;orthogonalLoop=1;jettySize=auto;html=1;exitX=0.5;exitY=1;exitDx=0;exitDy=0;entryX=0.75;entryY=0;entryDx=0;entryDy=0;" edge="1" parent="1" source="JpLIe5kng9SGEBmLXfT2-59" target="JpLIe5kng9SGEBmLXfT2-61">
          <mxGeometry relative="1" as="geometry" />
        </mxCell>
        <mxCell id="JpLIe5kng9SGEBmLXfT2-59" value="用户测试任务设计" style="rounded=0;whiteSpace=wrap;html=1;" vertex="1" parent="1">
          <mxGeometry x="1090" y="1571" width="116" height="60" as="geometry" />
        </mxCell>
        <mxCell id="JpLIe5kng9SGEBmLXfT2-70" style="edgeStyle=orthogonalEdgeStyle;rounded=0;orthogonalLoop=1;jettySize=auto;html=1;exitX=0.5;exitY=1;exitDx=0;exitDy=0;entryX=0.5;entryY=0;entryDx=0;entryDy=0;" edge="1" parent="1" source="JpLIe5kng9SGEBmLXfT2-61" target="JpLIe5kng9SGEBmLXfT2-62">
          <mxGeometry relative="1" as="geometry" />
        </mxCell>
        <mxCell id="JpLIe5kng9SGEBmLXfT2-61" value="反馈信息问卷设计" style="rounded=0;whiteSpace=wrap;html=1;" vertex="1" parent="1">
          <mxGeometry x="952" y="1720" width="116" height="60" as="geometry" />
        </mxCell>
        <mxCell id="JpLIe5kng9SGEBmLXfT2-71" style="edgeStyle=orthogonalEdgeStyle;rounded=0;orthogonalLoop=1;jettySize=auto;html=1;exitX=0.5;exitY=1;exitDx=0;exitDy=0;entryX=0.5;entryY=0;entryDx=0;entryDy=0;" edge="1" parent="1" source="JpLIe5kng9SGEBmLXfT2-62" target="JpLIe5kng9SGEBmLXfT2-63">
          <mxGeometry relative="1" as="geometry" />
        </mxCell>
        <mxCell id="JpLIe5kng9SGEBmLXfT2-62" value="分析反馈问卷" style="rounded=0;whiteSpace=wrap;html=1;" vertex="1" parent="1">
          <mxGeometry x="950" y="1840" width="120" height="60" as="geometry" />
        </mxCell>
        <mxCell id="JpLIe5kng9SGEBmLXfT2-72" style="edgeStyle=orthogonalEdgeStyle;rounded=0;orthogonalLoop=1;jettySize=auto;html=1;exitX=0.5;exitY=1;exitDx=0;exitDy=0;entryX=0.5;entryY=0;entryDx=0;entryDy=0;" edge="1" parent="1" source="JpLIe5kng9SGEBmLXfT2-63" target="JpLIe5kng9SGEBmLXfT2-64">
          <mxGeometry relative="1" as="geometry" />
        </mxCell>
        <mxCell id="JpLIe5kng9SGEBmLXfT2-63" value="起草反馈报告" style="rounded=0;whiteSpace=wrap;html=1;" vertex="1" parent="1">
          <mxGeometry x="950" y="1960" width="120" height="60" as="geometry" />
        </mxCell>
        <mxCell id="JpLIe5kng9SGEBmLXfT2-64" value="调试" style="rounded=0;whiteSpace=wrap;html=1;" vertex="1" parent="1">
          <mxGeometry x="950" y="2070" width="120" height="71" as="geometry" />
        </mxCell>
      </root>
    </mxGraphModel>
  </diagram>
</mxfile>
